<svg width="80" height="19" viewBox="0 0 80 19" fill="none" xmlns="http://www.w3.org/2000/svg">
<path d="M67.0032 19C74.1699 19 80 14.7383 80 9.49989C80 4.2615 74.1699 0 67.0032 0C60.2244 0 54.6443 3.81345 54.0601 8.65935H44.7058V6.66098L0 6.66098V12.3383L44.706 12.3383V10.3402H54.0603C54.6445 15.1863 60.2244 19 67.0032 19ZM42.9797 10.6577L1.72659 10.6577V8.34229L42.9797 8.34229V10.6577ZM55.7325 9.49989C55.7325 5.18866 60.7887 1.6813 67.0034 1.6813C73.2181 1.6813 78.2744 5.18866 78.2744 9.49989C78.2744 13.8113 73.2181 17.3189 67.0034 17.3189C60.7887 17.3189 55.7325 13.8113 55.7325 9.49989Z" fill="white"/>
</svg>
